<svg xmlns="http://www.w3.org/2000/svg" viewBox="0 0 500 500">
  <style>
    .st0{fill:#4A6CF7;}
    .st1{fill:#FFFFFF;}
    .st2{fill:#0E1133;}
    .st3{fill:#F5F5F5;}
    .st4{fill:#E6E6E6;}
  </style>
  <rect class="st4" x="0" y="0" width="500" height="500"/>
  <rect class="st3" x="50" y="50" width="400" height="300" rx="10" ry="10"/>
  <rect class="st0" x="80" y="80" width="340" height="40" rx="5" ry="5"/>
  <rect class="st3" x="80" y="140" width="340" height="10" rx="5" ry="5"/>
  <rect class="st3" x="80" y="160" width="340" height="10" rx="5" ry="5"/>
  <rect class="st3" x="80" y="180" width="340" height="10" rx="5" ry="5"/>
  <rect class="st3" x="80" y="200" width="200" height="10" rx="5" ry="5"/>
  <rect class="st0" x="80" y="230" width="100" height="100" rx="5" ry="5"/>
  <rect class="st0" x="200" y="230" width="100" height="100" rx="5" ry="5"/>
  <rect class="st0" x="320" y="230" width="100" height="100" rx="5" ry="5"/>
  <rect class="st3" x="50" y="380" width="400" height="20" rx="5" ry="5"/>
  <rect class="st3" x="50" y="410" width="300" height="15" rx="5" ry="5"/>
  <rect class="st3" x="50" y="435" width="200" height="15" rx="5" ry="5"/>
  <rect class="st0" x="400" y="435" width="50" height="15" rx="5" ry="5"/>
</svg>