<svg xmlns="http://www.w3.org/2000/svg" viewBox="0 0 500 500">
  <style>
    .st0{fill:#4A6CF7;}
    .st1{fill:#FFFFFF;}
    .st2{fill:#0E1133;}
    .st3{fill:#F5F5F5;}
    .st4{fill:#E6E6E6;}
  </style>
  <rect class="st4" x="0" y="0" width="500" height="500"/>
  <circle class="st0" cx="250" cy="150" r="80"/>
  <rect class="st3" x="100" y="250" width="300" height="20" rx="5" ry="5"/>
  <rect class="st3" x="150" y="280" width="200" height="15" rx="5" ry="5"/>
  <rect class="st0" x="170" y="310" width="50" height="50" rx="5" ry="5"/>
  <rect class="st0" x="230" y="310" width="50" height="50" rx="5" ry="5"/>
  <rect class="st0" x="290" y="310" width="50" height="50" rx="5" ry="5"/>
  <rect class="st3" x="50" y="380" width="400" height="20" rx="5" ry="5"/>
  <rect class="st3" x="50" y="410" width="300" height="15" rx="5" ry="5"/>
  <rect class="st3" x="50" y="435" width="200" height="15" rx="5" ry="5"/>
  <rect class="st0" x="400" y="435" width="50" height="15" rx="5" ry="5"/>
</svg>